<svg width="411" height="795" viewBox="0 0 411 795" fill="none" xmlns="http://www.w3.org/2000/svg">
<rect width="411" height="383" fill="#C62828"/>
<rect y="358" width="411" height="437" fill="white"/>
<circle cx="205" cy="391" r="62" fill="white"/>
<path fill-rule="evenodd" clip-rule="evenodd" d="M193.142 307.894C167.503 311.638 143.135 328.713 131.457 351.119L128.142 357.48L64.0711 357.483L0 357.485V390.636V423.786L64.0711 423.8L128.142 423.814L131.938 430.743C142.784 450.539 159.793 464.025 183.102 471.307C190.26 473.543 194.471 474.049 205.5 473.996C217.612 473.94 220.289 473.519 230.238 470.116C236.373 468.015 244.611 464.349 248.544 461.968C258.582 455.888 272.502 441.368 277.543 431.719L281.677 423.806L346.338 423.795L411 423.786V390.636V357.485L346.338 357.481L281.677 357.477L277.745 349.855C269.826 334.502 252.617 319.488 235.452 312.958C220.771 307.372 207.551 305.789 193.142 307.894ZM217.548 331.563C234.07 335.018 252.234 349.106 259.123 363.811C278.344 404.845 249.641 451.016 204.909 451.016C188.158 451.016 175.329 445.601 162.853 433.266C150.542 421.092 145.267 408.306 145.267 390.636C145.267 372.967 150.542 360.181 162.853 348.003C177.796 333.223 197.359 327.342 217.548 331.563Z" fill="black"/>
</svg>
