<svg width="150" height="150" viewBox="0 0 150 150" fill="none" xmlns="http://www.w3.org/2000/svg">
<path d="M60.8108 0C94.3957 0 121.622 27.2259 121.622 60.8108C121.622 74.6769 116.981 87.459 109.167 97.6886L147.625 136.159C150.792 139.325 150.792 144.459 147.625 147.625C144.702 150.548 140.103 150.773 136.922 148.3L136.159 147.625L97.6886 109.167C87.459 116.981 74.6769 121.622 60.8108 121.622C27.2259 121.622 0 94.3957 0 60.8108C0 27.2259 27.2259 0 60.8108 0ZM60.8108 16.2162C36.1819 16.2162 16.2162 36.1819 16.2162 60.8108C16.2162 85.4397 36.1819 105.405 60.8108 105.405C85.4397 105.405 105.405 85.4397 105.405 60.8108C105.405 36.1819 85.4397 16.2162 60.8108 16.2162Z" fill="#666666"/>
<path d="M53.8215 75.7002H63.6546V74.9324C63.7137 68.6723 65.7512 65.808 70.5644 62.8551C75.9977 59.6069 79.3936 55.1775 79.3936 48.4154C79.3936 38.4346 71.6274 32.1745 60.3474 32.1745C50.0122 32.1745 41.626 37.9031 41.3307 49.1241H51.843C52.1088 43.5727 56.1247 40.9151 60.2883 40.9151C64.8063 40.9151 68.4383 43.927 68.4383 48.5631C68.4383 52.6971 65.6921 55.5319 62.1191 57.7761C56.8925 61.0243 53.8805 64.302 53.8215 74.9324V75.7002ZM58.989 94.1263C62.4735 94.1263 65.4559 91.2324 65.4854 87.6299C65.4559 84.0864 62.4735 81.1926 58.989 81.1926C55.3865 81.1926 52.4631 84.0864 52.4927 87.6299C52.4631 91.2324 55.3865 94.1263 58.989 94.1263Z" fill="#666666"/>
</svg>
