<svg width="411" height="105" viewBox="0 0 411 105" fill="none" xmlns="http://www.w3.org/2000/svg">
<path d="M0 0H411V34C250.495 34 160.505 34 0 34V0Z" fill="#C62828"/>
<path d="M243.549 53.1916C243.549 74.3107 226.506 91.4312 205.482 91.4312C184.458 91.4312 167.415 74.3107 167.415 53.1916C167.415 32.0725 184.458 14.9521 205.482 14.9521C226.506 14.9521 243.549 32.0725 243.549 53.1916Z" fill="white"/>
<path fill-rule="evenodd" clip-rule="evenodd" d="M197.587 2.42476C181.845 4.73369 166.884 15.2655 159.714 29.0848L157.678 33.0075L79 33.0111V74L157.678 73.9205L160.009 78.1937C166.668 90.4035 177.111 98.7214 191.423 103.212C195.818 104.592 198.404 104.903 205.175 104.871C212.611 104.836 214.255 104.577 220.364 102.478C224.131 101.182 229.189 98.9207 231.604 97.4523C237.767 93.7026 246.314 84.7473 249.409 78.7961L251.947 73.9154L331.35 73.903V33.0111L251.947 33.006L249.533 28.3049C244.671 18.8355 234.105 9.57571 223.565 5.54787C214.551 2.10273 206.435 1.12644 197.587 2.42476ZM212.572 17.0231C222.717 19.1539 233.869 27.8427 238.099 36.9126C249.9 62.221 232.277 90.6978 204.812 90.6978C194.527 90.6978 186.65 87.3578 178.99 79.7497C171.431 72.2417 168.193 64.3554 168.193 53.457C168.193 42.5594 171.431 34.6738 178.99 27.1629C188.165 18.0469 200.177 14.4199 212.572 17.0231Z" fill="black"/>
<path d="M0 33H81V74H0V33Z" fill="black"/>
<path d="M331 33H411V74H331V33Z" fill="black"/>
</svg>
